<svg width="20" height="9" viewBox="0 0 20 9" fill="none" xmlns="http://www.w3.org/2000/svg">
<path d="M-3.8147e-06 4.4109C-3.8147e-06 4.69227 0.227848 4.91985 0.509556 4.91985L17.8594 4.91985L14.8103 7.96528C14.7109 8.06458 14.6612 8.19285 14.6612 8.32526C14.6612 8.45767 14.7109 8.58595 14.8103 8.68525C15.0092 8.88387 15.3282 8.88387 15.527 8.68525L19.4419 4.77503C19.6325 4.58469 19.6325 4.24953 19.4419 4.05919L15.527 0.148961C15.3282 -0.0496537 15.0092 -0.0496537 14.8103 0.148961C14.6115 0.347576 14.6115 0.666187 14.8103 0.864801L17.8594 3.91023L0.509556 3.91023C0.227848 3.90195 -3.8147e-06 4.12953 -3.8147e-06 4.4109Z" fill="white"/>
</svg>
